<svg id="visual" viewBox="0 0 960 540" width="960" height="540" xmlns="http://www.w3.org/2000/svg" xmlns:xlink="http://www.w3.org/1999/xlink" version="1.1"><rect x="0" y="0" width="960" height="540" fill="#001220"></rect><defs><linearGradient id="grad1_0" x1="43.8%" y1="0%" x2="100%" y2="100%"><stop offset="14.444444444444446%" stop-color="#001220" stop-opacity="1"></stop><stop offset="85.55555555555554%" stop-color="#001220" stop-opacity="1"></stop></linearGradient></defs><defs><linearGradient id="grad2_0" x1="0%" y1="0%" x2="56.3%" y2="100%"><stop offset="14.444444444444446%" stop-color="#001220" stop-opacity="1"></stop><stop offset="85.55555555555554%" stop-color="#001220" stop-opacity="1"></stop></linearGradient></defs><g transform="translate(960, 0)"><path d="M0 405C-54.7 403.9 -109.5 402.8 -155 374.2C-200.5 345.5 -236.8 289.2 -234.8 234.8C-232.7 180.3 -192.4 127.6 -214.3 88.8C-236.3 50 -320.7 25 -405 0L0 0Z" fill="#FBAE3C"></path></g><g transform="translate(0, 540)"><path d="M0 -405C49.5 -368.9 98.9 -332.8 120.2 -290.1C141.4 -247.3 134.4 -197.9 181 -181C227.6 -164.1 327.9 -179.7 374.2 -155C420.4 -130.2 412.7 -65.1 405 0L0 0Z" fill="#FBAE3C"></path></g></svg>